<svg width="115" height="70" viewBox="0 0 115 70" fill="none" xmlns="http://www.w3.org/2000/svg">
<path d="M22.9276 64.27C18.941 64.2267 15.7993 63.36 13.5026 61.67C11.206 59.98 10.0576 57.4017 10.0576 53.935V44.38C10.0576 42.17 9.36428 40.61 7.97762 39.7C6.63428 38.7467 4.68428 38.27 2.12762 38.27V33.525C4.68428 33.4817 6.63428 33.005 7.97762 32.095C9.36428 31.185 10.0576 29.6467 10.0576 27.48V17.86C10.0576 14.3933 11.2493 11.815 13.6326 10.125C16.016 8.435 19.1143 7.59 22.9276 7.59V12.27C20.6743 12.3133 18.8976 12.8117 17.5976 13.765C16.341 14.7183 15.7126 16.2567 15.7126 18.38V27.74C15.7126 32.2033 13.351 34.8467 8.62762 35.67V36.06C13.351 36.8833 15.7126 39.5267 15.7126 43.99V53.545C15.7126 55.6683 16.341 57.185 17.5976 58.095C18.8543 59.0483 20.631 59.5467 22.9276 59.59V64.27ZM92.08 64.27V59.59C94.3333 59.5033 96.0883 58.9833 97.345 58.03C98.645 57.12 99.295 55.6033 99.295 53.48V44.055C99.295 39.5917 101.657 36.9483 106.38 36.125V35.735C101.657 34.9117 99.295 32.2683 99.295 27.805V18.315C99.295 16.1917 98.6667 14.675 97.41 13.765C96.1533 12.8117 94.3767 12.3133 92.08 12.27V7.59C96.0667 7.63333 99.2083 8.5 101.505 10.19C103.802 11.88 104.95 14.4583 104.95 17.925V27.415C104.95 29.625 105.622 31.2067 106.965 32.16C108.352 33.07 110.323 33.525 112.88 33.525V38.27C110.323 38.3133 108.352 38.79 106.965 39.7C105.622 40.61 104.95 42.1483 104.95 44.315V54C104.95 57.4233 103.758 59.98 101.375 61.67C98.9917 63.4033 95.8933 64.27 92.08 64.27Z" fill="white"/>
<path d="M85.0067 22.8897H38.1792V22.1976C38.1792 21.4539 38.7843 20.8487 39.5281 20.8487H78.6768C80.5649 20.8487 82.1012 19.3125 82.1012 17.4244C82.1012 15.5362 80.5649 14 78.6768 14H69.2063C68.633 14 68.1685 14.4646 68.1685 15.0377C68.1685 15.6108 68.633 16.0754 69.2063 16.0754H78.6768C79.4206 16.0754 80.0257 16.6806 80.0257 17.4244C80.0257 18.1681 79.4206 18.7733 78.6768 18.7733H39.5281C37.64 18.7733 36.1037 20.3096 36.1037 22.1976V22.8897H30.9934C29.3428 22.8897 28 24.2326 28 25.883V52.6368C28 54.2873 29.3428 55.63 30.9934 55.63H85.0067C86.6573 55.63 88 54.2872 88 52.6368V25.883C88 24.2326 86.6573 22.8897 85.0067 22.8897ZM85.9245 52.6368C85.9245 53.143 85.5127 53.5546 85.0067 53.5546H30.9934C30.4873 53.5546 30.0755 53.1428 30.0755 52.6368V25.883C30.0755 25.3769 30.4873 24.9651 30.9934 24.9651H85.0067C85.5127 24.9651 85.9245 25.3769 85.9245 25.883V52.6368Z" fill="#D2D2D2"/>
<path d="M83.5031 26.3489H32.4969C31.9237 26.3489 31.4592 26.8135 31.4592 27.3866V51.1333C31.4592 51.7063 31.9237 52.171 32.4969 52.171H83.5031C84.0764 52.171 84.5409 51.7063 84.5409 51.1333V27.3866C84.5409 26.8135 84.0762 26.3489 83.5031 26.3489ZM67.5388 28.4243H73.9643V32.2811H67.5388V28.4243ZM42.0356 40.2979H48.461V44.1633H42.0356V40.2979ZM37.7853 38.2225V34.3565H44.2107V38.2225H37.7853ZM46.2862 38.2225V34.3565H52.7117V38.2225H46.2862ZM50.5367 40.2979H56.9623V44.1633H50.5367V40.2979ZM54.7873 38.2225V34.3565H61.2127V38.2225H54.7873ZM59.0378 40.2979H65.4632V44.1633H59.0378V40.2979V40.2979ZM63.2882 38.2225V34.3565H69.7137V38.2225H63.2882ZM67.5388 40.2979H73.9643V44.1633H67.5388V40.2979ZM71.7893 38.2225V34.3565H76.3007V38.2225H71.7893ZM59.0378 28.4243H65.4632V32.2811H59.0378V28.4243V28.4243ZM50.5367 28.4243H56.9623V32.2811H50.5367V28.4243ZM42.0356 28.4243H48.461V32.2811H42.0356V28.4243ZM33.5347 28.4243H39.9601V32.2811H33.5347V28.4243ZM33.5347 34.3565H35.7098V38.2225H33.5347V34.3565ZM33.5347 40.2979H39.9601V44.1633H33.5347V40.2979ZM35.7098 50.0955H33.5347V46.2387H35.7098V50.0955ZM44.2107 50.0955H37.7853V46.2387H44.2107V50.0955ZM52.7118 50.0955H46.2863V46.2387H52.7118V50.0955V50.0955ZM61.2127 50.0955H54.7873V46.2387H61.2127V50.0955V50.0955ZM69.7138 50.0955H63.2884V46.2387H69.7138V50.0955ZM78.2148 50.0955H71.7893V46.2387H78.2148V50.0955ZM82.4654 50.0955H80.2902V46.2387H82.4654V50.0955ZM82.4654 44.1633H76.0399V40.2979H77.3386C77.9119 40.2979 78.3764 39.8333 78.3764 39.2602V34.3565H82.4655V44.1633H82.4654ZM82.4654 32.2811H76.0399V28.4243H82.4654V32.2811Z" fill="#D2D2D2"/>
<path d="M65.3753 15.4344C65.3723 15.4273 65.3705 15.4233 65.3694 15.4206C65.3746 15.4328 65.3935 15.4762 65.3753 15.4344Z" fill="#D2D2D2"/>
<path d="M67.0677 15.7723C67.6502 15.1722 67.3157 14.1216 66.473 14.0102C65.7012 13.9081 65.0672 14.7067 65.3755 15.4347C65.6607 16.109 66.5433 16.2806 67.0677 15.7723Z" fill="#D2D2D2"/>
<path d="M65.3694 15.4195C65.3679 15.417 65.3673 15.4162 65.3694 15.4195V15.4195Z" fill="#D2D2D2"/>
</svg>
